<svg width="42" height="23" viewBox="0 0 42 23" fill="none" xmlns="http://www.w3.org/2000/svg">
<rect width="42" height="23" rx="4" fill="#202124"/>
<path d="M8.61391 8H11.1539C12.0206 8 12.6639 8.20333 13.0839 8.61C13.5039 9.01 13.7139 9.63333 13.7139 10.48V12.52C13.7139 13.3667 13.5039 13.9933 13.0839 14.4C12.6639 14.8 12.0206 15 11.1539 15H8.61391V13.73H9.27391V9.26H8.61391V8ZM11.1539 13.74C11.6139 13.74 11.9339 13.6333 12.1139 13.42C12.3006 13.2 12.3939 12.86 12.3939 12.4V10.48C12.3939 10.08 12.3006 9.77667 12.1139 9.57C11.9339 9.36333 11.6139 9.26 11.1539 9.26H10.5939V13.74H11.1539ZM18.667 14.28C18.5336 14.5933 18.347 14.8167 18.107 14.95C17.867 15.0767 17.587 15.14 17.267 15.14C16.967 15.14 16.6836 15.0833 16.417 14.97C16.157 14.8567 15.927 14.69 15.727 14.47C15.527 14.25 15.367 13.9833 15.247 13.67C15.1336 13.3567 15.077 13 15.077 12.6V12.44C15.077 12.0467 15.1336 11.6933 15.247 11.38C15.3603 11.0667 15.5136 10.8 15.707 10.58C15.9003 10.36 16.1236 10.1933 16.377 10.08C16.637 9.96 16.9136 9.9 17.207 9.9C17.5603 9.9 17.8436 9.96 18.057 10.08C18.277 10.2 18.4503 10.3867 18.577 10.64H18.757V10.04H20.017V13.5C20.017 13.7 20.107 13.8 20.287 13.8H20.477V15H19.617C19.3903 15 19.2036 14.9333 19.057 14.8C18.917 14.6667 18.847 14.4933 18.847 14.28H18.667ZM17.547 13.94C17.9136 13.94 18.207 13.82 18.427 13.58C18.647 13.3333 18.757 13 18.757 12.58V12.46C18.757 12.04 18.647 11.71 18.427 11.47C18.207 11.2233 17.9136 11.1 17.547 11.1C17.1803 11.1 16.887 11.2233 16.667 11.47C16.447 11.71 16.337 12.04 16.337 12.46V12.58C16.337 13 16.447 13.3333 16.667 13.58C16.887 13.82 17.1803 13.94 17.547 13.94ZM21.74 10.04H23.84V10.76H24.02C24.1133 10.4867 24.27 10.2767 24.49 10.13C24.7167 9.97667 24.9867 9.9 25.3 9.9C25.7933 9.9 26.19 10.0567 26.49 10.37C26.79 10.6767 26.94 11.1467 26.94 11.78V12L25.64 12.12V11.98C25.64 11.7067 25.57 11.49 25.43 11.33C25.29 11.1633 25.08 11.08 24.8 11.08C24.52 11.08 24.3 11.1767 24.14 11.37C23.98 11.5633 23.9 11.84 23.9 12.2V13.8H25.04V15H21.62V13.8H22.64V11.24H21.74V10.04ZM30.163 11.86H30.403L31.723 10.04H33.103V10.1L31.503 12.37V12.55L33.263 14.94V15H31.823L30.403 13.06H30.163V15H28.903V8H30.163V11.86Z" fill="white"/>
</svg>
