<svg width="42" height="23" viewBox="0 0 42 23" fill="none" xmlns="http://www.w3.org/2000/svg">
<rect width="42" height="23" rx="4" fill="url(#paint0_linear_151_1876)"/>
<path d="M9.03391 8H13.5139V9.26H10.3539V10.86H13.4539V12.12H10.3539V15H9.03391V8ZM15.547 13.8H17.227V11.24H15.667V10.04H18.487V13.8H19.927V15H15.547V13.8ZM18.797 8.57C18.797 8.70333 18.7703 8.83 18.717 8.95C18.6703 9.06333 18.6036 9.16333 18.517 9.25C18.4303 9.33 18.327 9.39667 18.207 9.45C18.0936 9.49667 17.9736 9.52 17.847 9.52C17.7136 9.52 17.5903 9.49667 17.477 9.45C17.3636 9.39667 17.2636 9.33 17.177 9.25C17.0903 9.16333 17.0203 9.06333 16.967 8.95C16.9203 8.83 16.897 8.70333 16.897 8.57C16.897 8.43667 16.9203 8.31333 16.967 8.2C17.0203 8.08 17.0903 7.98 17.177 7.9C17.2636 7.81333 17.3636 7.74667 17.477 7.7C17.5903 7.64667 17.7136 7.62 17.847 7.62C17.9736 7.62 18.0936 7.64667 18.207 7.7C18.327 7.74667 18.4303 7.81333 18.517 7.9C18.6036 7.98 18.6703 8.08 18.717 8.2C18.7703 8.31333 18.797 8.43667 18.797 8.57ZM21.74 10.04H23.84V10.76H24.02C24.1133 10.4867 24.27 10.2767 24.49 10.13C24.7167 9.97667 24.9867 9.9 25.3 9.9C25.7933 9.9 26.19 10.0567 26.49 10.37C26.79 10.6767 26.94 11.1467 26.94 11.78V12L25.64 12.12V11.98C25.64 11.7067 25.57 11.49 25.43 11.33C25.29 11.1633 25.08 11.08 24.8 11.08C24.52 11.08 24.3 11.1767 24.14 11.37C23.98 11.5633 23.9 11.84 23.9 12.2V13.8H25.04V15H21.62V13.8H22.64V11.24H21.74V10.04ZM29.613 12.93C29.6197 13.0767 29.653 13.2133 29.713 13.34C29.7797 13.46 29.8664 13.5667 29.973 13.66C30.0864 13.7467 30.213 13.8167 30.353 13.87C30.4997 13.9167 30.653 13.94 30.813 13.94C31.1264 13.94 31.3664 13.8867 31.533 13.78C31.6997 13.6667 31.8197 13.5333 31.893 13.38L32.973 13.98C32.913 14.1067 32.8297 14.24 32.723 14.38C32.6164 14.5133 32.4764 14.6367 32.303 14.75C32.1364 14.8633 31.9297 14.9567 31.683 15.03C31.443 15.1033 31.1597 15.14 30.833 15.14C30.4597 15.14 30.1197 15.08 29.813 14.96C29.5064 14.84 29.2397 14.6667 29.013 14.44C28.793 14.2133 28.6197 13.9367 28.493 13.61C28.373 13.2833 28.313 12.9133 28.313 12.5V12.44C28.313 12.06 28.3764 11.7133 28.503 11.4C28.6364 11.0867 28.8164 10.82 29.043 10.6C29.2697 10.38 29.533 10.21 29.833 10.09C30.1397 9.96333 30.4664 9.9 30.813 9.9C31.2397 9.9 31.6064 9.97667 31.913 10.13C32.2197 10.2767 32.473 10.4667 32.673 10.7C32.873 10.9267 33.0197 11.18 33.113 11.46C33.2064 11.7333 33.253 12 33.253 12.26V12.93H29.613ZM30.803 11.04C30.483 11.04 30.223 11.1233 30.023 11.29C29.823 11.45 29.693 11.6367 29.633 11.85H31.973C31.933 11.6167 31.8064 11.4233 31.593 11.27C31.3864 11.1167 31.123 11.04 30.803 11.04Z" fill="white"/>
<defs>
<linearGradient id="paint0_linear_151_1876" x1="-5.01625e-07" y1="18" x2="42.6401" y2="9.04931" gradientUnits="userSpaceOnUse">
<stop stop-color="#DE3021"/>
<stop offset="0.63932" stop-color="#E59736"/>
<stop offset="1" stop-color="#EEDD4B"/>
</linearGradient>
</defs>
</svg>
