<svg width="55" height="23" viewBox="0 0 55 23" fill="none" xmlns="http://www.w3.org/2000/svg">
<rect width="55" height="23" rx="4" fill="url(#paint0_linear_151_1881)"/>
<path d="M9.01086 8H13.4909V9.26H10.3309V10.86H13.4309V12.12H10.3309V15H9.01086V8ZM15.4039 13.8H17.1439V9.2H15.4639V8H18.4039V13.8H20.0239V15H15.4039V13.8ZM26.817 12.58C26.817 12.9933 26.747 13.36 26.607 13.68C26.467 13.9933 26.277 14.26 26.037 14.48C25.797 14.6933 25.5203 14.8567 25.207 14.97C24.9003 15.0833 24.577 15.14 24.237 15.14C23.897 15.14 23.5703 15.0833 23.257 14.97C22.9503 14.8567 22.677 14.6933 22.437 14.48C22.197 14.26 22.007 13.9933 21.867 13.68C21.727 13.36 21.657 12.9933 21.657 12.58V12.46C21.657 12.0533 21.727 11.6933 21.867 11.38C22.007 11.06 22.197 10.79 22.437 10.57C22.677 10.35 22.9503 10.1833 23.257 10.07C23.5703 9.95667 23.897 9.9 24.237 9.9C24.577 9.9 24.9003 9.95667 25.207 10.07C25.5203 10.1833 25.797 10.35 26.037 10.57C26.277 10.79 26.467 11.06 26.607 11.38C26.747 11.6933 26.817 12.0533 26.817 12.46V12.58ZM24.237 13.94C24.417 13.94 24.587 13.91 24.747 13.85C24.907 13.79 25.047 13.7033 25.167 13.59C25.287 13.4767 25.3803 13.34 25.447 13.18C25.5203 13.0133 25.557 12.8267 25.557 12.62V12.42C25.557 12.2133 25.5203 12.03 25.447 11.87C25.3803 11.7033 25.287 11.5633 25.167 11.45C25.047 11.3367 24.907 11.25 24.747 11.19C24.587 11.13 24.417 11.1 24.237 11.1C24.057 11.1 23.887 11.13 23.727 11.19C23.567 11.25 23.427 11.3367 23.307 11.45C23.187 11.5633 23.0903 11.7033 23.017 11.87C22.9503 12.03 22.917 12.2133 22.917 12.42V12.62C22.917 12.8267 22.9503 13.0133 23.017 13.18C23.0903 13.34 23.187 13.4767 23.307 13.59C23.427 13.7033 23.567 13.79 23.727 13.85C23.887 13.91 24.057 13.94 24.237 13.94ZM28.24 10.04H30.34V10.76H30.52C30.6133 10.4867 30.77 10.2767 30.99 10.13C31.2167 9.97667 31.4867 9.9 31.8 9.9C32.2933 9.9 32.69 10.0567 32.99 10.37C33.29 10.6767 33.44 11.1467 33.44 11.78V12L32.14 12.12V11.98C32.14 11.7067 32.07 11.49 31.93 11.33C31.79 11.1633 31.58 11.08 31.3 11.08C31.02 11.08 30.8 11.1767 30.64 11.37C30.48 11.5633 30.4 11.84 30.4 12.2V13.8H31.54V15H28.12V13.8H29.14V11.24H28.24V10.04ZM38.213 14.28C38.0797 14.5933 37.893 14.8167 37.653 14.95C37.413 15.0767 37.133 15.14 36.813 15.14C36.513 15.14 36.2297 15.0833 35.963 14.97C35.703 14.8567 35.473 14.69 35.273 14.47C35.073 14.25 34.913 13.9833 34.793 13.67C34.6797 13.3567 34.623 13 34.623 12.6V12.44C34.623 12.0467 34.6797 11.6933 34.793 11.38C34.9064 11.0667 35.0597 10.8 35.253 10.58C35.4464 10.36 35.6697 10.1933 35.923 10.08C36.183 9.96 36.4597 9.9 36.753 9.9C37.1064 9.9 37.3897 9.96 37.603 10.08C37.823 10.2 37.9964 10.3867 38.123 10.64H38.303V10.04H39.563V13.5C39.563 13.7 39.653 13.8 39.833 13.8H40.023V15H39.163C38.9364 15 38.7497 14.9333 38.603 14.8C38.463 14.6667 38.393 14.4933 38.393 14.28H38.213ZM37.093 13.94C37.4597 13.94 37.753 13.82 37.973 13.58C38.193 13.3333 38.303 13 38.303 12.58V12.46C38.303 12.04 38.193 11.71 37.973 11.47C37.753 11.2233 37.4597 11.1 37.093 11.1C36.7264 11.1 36.433 11.2233 36.213 11.47C35.993 11.71 35.883 12.04 35.883 12.46V12.58C35.883 13 35.993 13.3333 36.213 13.58C36.433 13.82 36.7264 13.94 37.093 13.94ZM41.4961 13.8H43.2361V9.2H41.5561V8H44.4961V13.8H46.1161V15H41.4961V13.8Z" fill="white"/>
<defs>
<linearGradient id="paint0_linear_151_1881" x1="-6.56891e-07" y1="18" x2="54.2029" y2="3.1004" gradientUnits="userSpaceOnUse">
<stop stop-color="#BF5973"/>
<stop offset="1" stop-color="#E8BFC4"/>
</linearGradient>
</defs>
</svg>
