<svg width="55" height="23" viewBox="0 0 55 23" fill="none" xmlns="http://www.w3.org/2000/svg">
<rect width="55" height="23" rx="4" fill="#7B5B4C"/>
<path d="M10.7309 11.46H13.7309V15H12.5309V14.22H12.3509C12.2709 14.48 12.1175 14.7 11.8909 14.88C11.6642 15.0533 11.3242 15.14 10.8709 15.14C10.5509 15.14 10.2509 15.08 9.97086 14.96C9.69086 14.84 9.44753 14.6633 9.24086 14.43C9.03419 14.19 8.87086 13.8967 8.75086 13.55C8.63086 13.1967 8.57086 12.7867 8.57086 12.32V10.68C8.57086 10.2267 8.63419 9.82667 8.76086 9.48C8.89419 9.12667 9.07419 8.83 9.30086 8.59C9.53419 8.35 9.81086 8.17 10.1309 8.05C10.4509 7.92333 10.8042 7.86 11.1909 7.86C11.5909 7.86 11.9475 7.92667 12.2609 8.06C12.5742 8.18667 12.8409 8.36667 13.0609 8.6C13.2809 8.82667 13.4475 9.09667 13.5609 9.41C13.6742 9.71667 13.7309 10.0467 13.7309 10.4V10.52H12.4109V10.4C12.4109 9.98 12.3009 9.66333 12.0809 9.45C11.8675 9.23 11.5642 9.12 11.1709 9.12C10.7975 9.12 10.4909 9.24667 10.2509 9.5C10.0109 9.74667 9.89086 10.1733 9.89086 10.78V12.26C9.89086 13.34 10.3309 13.88 11.2109 13.88C11.6042 13.88 11.9009 13.7767 12.1009 13.57C12.3075 13.3567 12.4109 13.0733 12.4109 12.72H10.7309V11.46ZM15.1939 10.04H17.2939V10.76H17.4739C17.5672 10.4867 17.7239 10.2767 17.9439 10.13C18.1706 9.97667 18.4406 9.9 18.7539 9.9C19.2472 9.9 19.6439 10.0567 19.9439 10.37C20.2439 10.6767 20.3939 11.1467 20.3939 11.78V12L19.0939 12.12V11.98C19.0939 11.7067 19.0239 11.49 18.8839 11.33C18.7439 11.1633 18.5339 11.08 18.2539 11.08C17.9739 11.08 17.7539 11.1767 17.5939 11.37C17.4339 11.5633 17.3539 11.84 17.3539 12.2V13.8H18.4939V15H15.0739V13.8H16.0939V11.24H15.1939V10.04ZM26.817 12.58C26.817 12.9933 26.747 13.36 26.607 13.68C26.467 13.9933 26.277 14.26 26.037 14.48C25.797 14.6933 25.5203 14.8567 25.207 14.97C24.9003 15.0833 24.577 15.14 24.237 15.14C23.897 15.14 23.5703 15.0833 23.257 14.97C22.9503 14.8567 22.677 14.6933 22.437 14.48C22.197 14.26 22.007 13.9933 21.867 13.68C21.727 13.36 21.657 12.9933 21.657 12.58V12.46C21.657 12.0533 21.727 11.6933 21.867 11.38C22.007 11.06 22.197 10.79 22.437 10.57C22.677 10.35 22.9503 10.1833 23.257 10.07C23.5703 9.95667 23.897 9.9 24.237 9.9C24.577 9.9 24.9003 9.95667 25.207 10.07C25.5203 10.1833 25.797 10.35 26.037 10.57C26.277 10.79 26.467 11.06 26.607 11.38C26.747 11.6933 26.817 12.0533 26.817 12.46V12.58ZM24.237 13.94C24.417 13.94 24.587 13.91 24.747 13.85C24.907 13.79 25.047 13.7033 25.167 13.59C25.287 13.4767 25.3803 13.34 25.447 13.18C25.5203 13.0133 25.557 12.8267 25.557 12.62V12.42C25.557 12.2133 25.5203 12.03 25.447 11.87C25.3803 11.7033 25.287 11.5633 25.167 11.45C25.047 11.3367 24.907 11.25 24.747 11.19C24.587 11.13 24.417 11.1 24.237 11.1C24.057 11.1 23.887 11.13 23.727 11.19C23.567 11.25 23.427 11.3367 23.307 11.45C23.187 11.5633 23.0903 11.7033 23.017 11.87C22.9503 12.03 22.917 12.2133 22.917 12.42V12.62C22.917 12.8267 22.9503 13.0133 23.017 13.18C23.0903 13.34 23.187 13.4767 23.307 13.59C23.427 13.7033 23.567 13.79 23.727 13.85C23.887 13.91 24.057 13.94 24.237 13.94ZM31.84 10.04H33.1V15H31.84V14.28H31.66C31.44 14.8533 30.9667 15.14 30.24 15.14C29.9933 15.14 29.7633 15.1 29.55 15.02C29.3367 14.94 29.15 14.8167 28.99 14.65C28.83 14.4833 28.7033 14.2767 28.61 14.03C28.5233 13.7767 28.48 13.48 28.48 13.14V10.04H29.74V12.88C29.74 13.2333 29.8233 13.51 29.99 13.71C30.1567 13.9033 30.4067 14 30.74 14C31.12 14 31.3967 13.88 31.57 13.64C31.75 13.3933 31.84 13.06 31.84 12.64V10.04ZM36.263 15H35.003V10.04H36.263V10.78H36.443C36.5564 10.5 36.7397 10.2833 36.993 10.13C37.2464 9.97667 37.543 9.9 37.883 9.9C38.123 9.9 38.3464 9.94 38.553 10.02C38.7664 10.0933 38.953 10.21 39.113 10.37C39.273 10.53 39.3964 10.7333 39.483 10.98C39.5764 11.2267 39.623 11.52 39.623 11.86V15H38.363V12.18C38.363 11.8267 38.2764 11.55 38.103 11.35C37.9364 11.1433 37.693 11.04 37.373 11.04C36.9997 11.04 36.7197 11.1667 36.533 11.42C36.353 11.6667 36.263 12 36.263 12.42V15ZM45.0861 14.28H44.9061C44.8528 14.3933 44.7861 14.5033 44.7061 14.61C44.6328 14.71 44.5328 14.8 44.4061 14.88C44.2861 14.96 44.1394 15.0233 43.9661 15.07C43.7994 15.1167 43.5961 15.14 43.3561 15.14C43.0494 15.14 42.7628 15.0867 42.4961 14.98C42.2361 14.8667 42.0061 14.7033 41.8061 14.49C41.6128 14.27 41.4594 14.0033 41.3461 13.69C41.2394 13.3767 41.1861 13.0167 41.1861 12.61V12.43C41.1861 12.03 41.2428 11.6733 41.3561 11.36C41.4761 11.0467 41.6361 10.7833 41.8361 10.57C42.0428 10.35 42.2794 10.1833 42.5461 10.07C42.8194 9.95667 43.1061 9.9 43.4061 9.9C43.8061 9.9 44.1228 9.97667 44.3561 10.13C44.5894 10.2767 44.7728 10.4867 44.9061 10.76H45.0861V8H46.3461V15H45.0861V14.28ZM43.7661 13.94C44.1594 13.94 44.4761 13.8167 44.7161 13.57C44.9628 13.3167 45.0861 12.9867 45.0861 12.58V12.46C45.0861 12.0533 44.9628 11.7267 44.7161 11.48C44.4761 11.2267 44.1594 11.1 43.7661 11.1C43.3728 11.1 43.0528 11.2233 42.8061 11.47C42.5661 11.71 42.4461 12.04 42.4461 12.46V12.58C42.4461 13 42.5661 13.3333 42.8061 13.58C43.0528 13.82 43.3728 13.94 43.7661 13.94Z" fill="white"/>
</svg>
