<svg width="36" height="23" viewBox="0 0 36 23" fill="none" xmlns="http://www.w3.org/2000/svg">
<rect width="36" height="23" rx="4" fill="url(#paint0_linear_151_1877)"/>
<path d="M9.13543 8H13.8154V9.26H12.1354V13.74H13.8154V15H9.13543V13.74H10.8154V9.26H9.13543V8ZM20.5585 13.18C20.4451 13.7667 20.1751 14.24 19.7485 14.6C19.3285 14.96 18.7651 15.14 18.0585 15.14C17.6918 15.14 17.3485 15.0833 17.0285 14.97C16.7151 14.8567 16.4418 14.6933 16.2085 14.48C15.9751 14.2667 15.7918 14.0033 15.6585 13.69C15.5251 13.3767 15.4585 13.02 15.4585 12.62V12.5C15.4585 12.1 15.5251 11.74 15.6585 11.42C15.7918 11.1 15.9751 10.8267 16.2085 10.6C16.4485 10.3733 16.7251 10.2 17.0385 10.08C17.3585 9.96 17.6985 9.9 18.0585 9.9C18.7518 9.9 19.3118 10.08 19.7385 10.44C20.1718 10.8 20.4451 11.2733 20.5585 11.86L19.3185 12.18C19.2785 11.8867 19.1518 11.6333 18.9385 11.42C18.7251 11.2067 18.4251 11.1 18.0385 11.1C17.8585 11.1 17.6885 11.1333 17.5285 11.2C17.3685 11.2667 17.2285 11.3633 17.1085 11.49C16.9885 11.61 16.8918 11.76 16.8185 11.94C16.7518 12.1133 16.7185 12.31 16.7185 12.53V12.59C16.7185 12.81 16.7518 13.0067 16.8185 13.18C16.8918 13.3467 16.9885 13.4867 17.1085 13.6C17.2285 13.7133 17.3685 13.8 17.5285 13.86C17.6885 13.9133 17.8585 13.94 18.0385 13.94C18.4251 13.94 18.7185 13.8433 18.9185 13.65C19.1251 13.4567 19.2585 13.1967 19.3185 12.87L20.5585 13.18ZM23.3515 12.93C23.3582 13.0767 23.3915 13.2133 23.4515 13.34C23.5182 13.46 23.6049 13.5667 23.7115 13.66C23.8249 13.7467 23.9515 13.8167 24.0915 13.87C24.2382 13.9167 24.3915 13.94 24.5515 13.94C24.8649 13.94 25.1049 13.8867 25.2715 13.78C25.4382 13.6667 25.5582 13.5333 25.6315 13.38L26.7115 13.98C26.6515 14.1067 26.5682 14.24 26.4615 14.38C26.3549 14.5133 26.2149 14.6367 26.0415 14.75C25.8749 14.8633 25.6682 14.9567 25.4215 15.03C25.1815 15.1033 24.8982 15.14 24.5715 15.14C24.1982 15.14 23.8582 15.08 23.5515 14.96C23.2449 14.84 22.9782 14.6667 22.7515 14.44C22.5315 14.2133 22.3582 13.9367 22.2315 13.61C22.1115 13.2833 22.0515 12.9133 22.0515 12.5V12.44C22.0515 12.06 22.1149 11.7133 22.2415 11.4C22.3749 11.0867 22.5549 10.82 22.7815 10.6C23.0082 10.38 23.2715 10.21 23.5715 10.09C23.8782 9.96333 24.2049 9.9 24.5515 9.9C24.9782 9.9 25.3449 9.97667 25.6515 10.13C25.9582 10.2767 26.2115 10.4667 26.4115 10.7C26.6115 10.9267 26.7582 11.18 26.8515 11.46C26.9449 11.7333 26.9915 12 26.9915 12.26V12.93H23.3515ZM24.5415 11.04C24.2215 11.04 23.9615 11.1233 23.7615 11.29C23.5615 11.45 23.4315 11.6367 23.3715 11.85H25.7115C25.6715 11.6167 25.5449 11.4233 25.3315 11.27C25.1249 11.1167 24.8615 11.04 24.5415 11.04Z" fill="white"/>
<defs>
<linearGradient id="paint0_linear_151_1877" x1="-4.29965e-07" y1="18" x2="36.9625" y2="11.3495" gradientUnits="userSpaceOnUse">
<stop stop-color="#4AA2C8"/>
<stop offset="0.517878" stop-color="#C1C6DB"/>
<stop offset="1" stop-color="#3E7FA8"/>
</linearGradient>
</defs>
</svg>
