<svg width="49" height="23" viewBox="0 0 49 23" fill="none" xmlns="http://www.w3.org/2000/svg">
<rect width="49" height="23" rx="4" fill="url(#paint0_linear_151_1879)"/>
<path d="M9.21238 8H10.5324V13.74H13.7124V15H9.21238V8ZM15.7854 13.8H17.4654V11.24H15.9054V10.04H18.7254V13.8H20.1654V15H15.7854V13.8ZM19.0354 8.57C19.0354 8.70333 19.0088 8.83 18.9554 8.95C18.9088 9.06333 18.8421 9.16333 18.7554 9.25C18.6688 9.33 18.5654 9.39667 18.4454 9.45C18.3321 9.49667 18.2121 9.52 18.0854 9.52C17.9521 9.52 17.8288 9.49667 17.7154 9.45C17.6021 9.39667 17.5021 9.33 17.4154 9.25C17.3288 9.16333 17.2588 9.06333 17.2054 8.95C17.1588 8.83 17.1354 8.70333 17.1354 8.57C17.1354 8.43667 17.1588 8.31333 17.2054 8.2C17.2588 8.08 17.3288 7.98 17.4154 7.9C17.5021 7.81333 17.6021 7.74667 17.7154 7.7C17.8288 7.64667 17.9521 7.62 18.0854 7.62C18.2121 7.62 18.3321 7.64667 18.4454 7.7C18.5654 7.74667 18.6688 7.81333 18.7554 7.9C18.8421 7.98 18.9088 8.08 18.9554 8.2C19.0088 8.31333 19.0354 8.43667 19.0354 8.57ZM25.7585 14.28H25.5785C25.5251 14.3933 25.4585 14.5033 25.3785 14.61C25.3051 14.71 25.2051 14.8 25.0785 14.88C24.9585 14.96 24.8118 15.0233 24.6385 15.07C24.4718 15.1167 24.2685 15.14 24.0285 15.14C23.7218 15.14 23.4351 15.0867 23.1685 14.98C22.9085 14.8667 22.6785 14.7033 22.4785 14.49C22.2851 14.27 22.1318 14.0033 22.0185 13.69C21.9118 13.3767 21.8585 13.0167 21.8585 12.61V12.43C21.8585 12.03 21.9151 11.6733 22.0285 11.36C22.1485 11.0467 22.3085 10.7833 22.5085 10.57C22.7151 10.35 22.9518 10.1833 23.2185 10.07C23.4918 9.95667 23.7785 9.9 24.0785 9.9C24.4785 9.9 24.7951 9.97667 25.0285 10.13C25.2618 10.2767 25.4451 10.4867 25.5785 10.76H25.7585V10.04H27.0185V16.22C27.0185 16.4467 26.9451 16.6333 26.7985 16.78C26.6585 16.9267 26.4751 17 26.2485 17H22.9085V15.8H25.4885C25.6685 15.8 25.7585 15.7 25.7585 15.5V14.28ZM24.4385 13.94C24.8318 13.94 25.1485 13.8167 25.3885 13.57C25.6351 13.3167 25.7585 12.9867 25.7585 12.58V12.46C25.7585 12.0533 25.6351 11.7267 25.3885 11.48C25.1485 11.2267 24.8318 11.1 24.4385 11.1C24.0451 11.1 23.7251 11.2233 23.4785 11.47C23.2385 11.71 23.1185 12.04 23.1185 12.46V12.58C23.1185 13 23.2385 13.3333 23.4785 13.58C23.7251 13.82 24.0451 13.94 24.4385 13.94ZM30.0215 15H28.7615V8H30.0215V10.84H30.2015C30.3282 10.54 30.5149 10.31 30.7615 10.15C31.0082 9.98333 31.3115 9.9 31.6715 9.9C31.9182 9.9 32.1449 9.94 32.3515 10.02C32.5582 10.1 32.7382 10.22 32.8915 10.38C33.0449 10.54 33.1649 10.7467 33.2515 11C33.3382 11.2467 33.3815 11.54 33.3815 11.88V15H32.1215V12.18C32.1215 11.8267 32.0349 11.55 31.8615 11.35C31.6949 11.1433 31.4515 11.04 31.1315 11.04C30.7582 11.04 30.4782 11.1667 30.2915 11.42C30.1115 11.6667 30.0215 12 30.0215 12.42V15ZM35.1246 10.04H36.5946V8H37.8546V10.04H39.6446V11.24H37.8546V13.5C37.8546 13.7 37.9446 13.8 38.1246 13.8H39.4646V15H37.3646C37.1379 15 36.9512 14.9267 36.8046 14.78C36.6646 14.6333 36.5946 14.4467 36.5946 14.22V11.24H35.1246V10.04Z" fill="white"/>
<defs>
<linearGradient id="paint0_linear_151_1879" x1="-5.8523e-07" y1="18" x2="49" y2="6" gradientUnits="userSpaceOnUse">
<stop stop-color="#FFD600"/>
<stop offset="0.517878" stop-color="#DBC500"/>
<stop offset="1" stop-color="#FFD600"/>
</linearGradient>
</defs>
</svg>
