<svg width="49" height="23" viewBox="0 0 49 23" fill="none" xmlns="http://www.w3.org/2000/svg">
<rect width="49" height="23" rx="4" fill="url(#paint0_linear_151_1825)"/>
<path d="M8.61238 8H10.9324L11.3324 13.26V14.28H11.5724V13.26L11.9724 8H14.2924V15H13.0924V10.32L13.2124 8.72H12.9724L12.4524 15H10.4724L9.93238 8.72H9.69238L9.81238 10.32V15H8.61238V8ZM18.9054 14.28C18.7721 14.5933 18.5854 14.8167 18.3454 14.95C18.1054 15.0767 17.8254 15.14 17.5054 15.14C17.2054 15.14 16.9221 15.0833 16.6554 14.97C16.3954 14.8567 16.1654 14.69 15.9654 14.47C15.7654 14.25 15.6054 13.9833 15.4854 13.67C15.3721 13.3567 15.3154 13 15.3154 12.6V12.44C15.3154 12.0467 15.3721 11.6933 15.4854 11.38C15.5988 11.0667 15.7521 10.8 15.9454 10.58C16.1388 10.36 16.3621 10.1933 16.6154 10.08C16.8754 9.96 17.1521 9.9 17.4454 9.9C17.7988 9.9 18.0821 9.96 18.2954 10.08C18.5154 10.2 18.6888 10.3867 18.8154 10.64H18.9954V10.04H20.2554V13.5C20.2554 13.7 20.3454 13.8 20.5254 13.8H20.7154V15H19.8554C19.6288 15 19.4421 14.9333 19.2954 14.8C19.1554 14.6667 19.0854 14.4933 19.0854 14.28H18.9054ZM17.7854 13.94C18.1521 13.94 18.4454 13.82 18.6654 13.58C18.8854 13.3333 18.9954 13 18.9954 12.58V12.46C18.9954 12.04 18.8854 11.71 18.6654 11.47C18.4454 11.2233 18.1521 11.1 17.7854 11.1C17.4188 11.1 17.1254 11.2233 16.9054 11.47C16.6854 11.71 16.5754 12.04 16.5754 12.46V12.58C16.5754 13 16.6854 13.3333 16.9054 13.58C17.1254 13.82 17.4188 13.94 17.7854 13.94ZM25.7585 14.28H25.5785C25.5251 14.3933 25.4585 14.5033 25.3785 14.61C25.3051 14.71 25.2051 14.8 25.0785 14.88C24.9585 14.96 24.8118 15.0233 24.6385 15.07C24.4718 15.1167 24.2685 15.14 24.0285 15.14C23.7218 15.14 23.4351 15.0867 23.1685 14.98C22.9085 14.8667 22.6785 14.7033 22.4785 14.49C22.2851 14.27 22.1318 14.0033 22.0185 13.69C21.9118 13.3767 21.8585 13.0167 21.8585 12.61V12.43C21.8585 12.03 21.9151 11.6733 22.0285 11.36C22.1485 11.0467 22.3085 10.7833 22.5085 10.57C22.7151 10.35 22.9518 10.1833 23.2185 10.07C23.4918 9.95667 23.7785 9.9 24.0785 9.9C24.4785 9.9 24.7951 9.97667 25.0285 10.13C25.2618 10.2767 25.4451 10.4867 25.5785 10.76H25.7585V10.04H27.0185V16.22C27.0185 16.4467 26.9451 16.6333 26.7985 16.78C26.6585 16.9267 26.4751 17 26.2485 17H22.9085V15.8H25.4885C25.6685 15.8 25.7585 15.7 25.7585 15.5V14.28ZM24.4385 13.94C24.8318 13.94 25.1485 13.8167 25.3885 13.57C25.6351 13.3167 25.7585 12.9867 25.7585 12.58V12.46C25.7585 12.0533 25.6351 11.7267 25.3885 11.48C25.1485 11.2267 24.8318 11.1 24.4385 11.1C24.0451 11.1 23.7251 11.2233 23.4785 11.47C23.2385 11.71 23.1185 12.04 23.1185 12.46V12.58C23.1185 13 23.2385 13.3333 23.4785 13.58C23.7251 13.82 24.0451 13.94 24.4385 13.94ZM28.8315 13.8H30.5115V11.24H28.9515V10.04H31.7715V13.8H33.2115V15H28.8315V13.8ZM32.0815 8.57C32.0815 8.70333 32.0549 8.83 32.0015 8.95C31.9549 9.06333 31.8882 9.16333 31.8015 9.25C31.7149 9.33 31.6115 9.39667 31.4915 9.45C31.3782 9.49667 31.2582 9.52 31.1315 9.52C30.9982 9.52 30.8749 9.49667 30.7615 9.45C30.6482 9.39667 30.5482 9.33 30.4615 9.25C30.3749 9.16333 30.3049 9.06333 30.2515 8.95C30.2049 8.83 30.1815 8.70333 30.1815 8.57C30.1815 8.43667 30.2049 8.31333 30.2515 8.2C30.3049 8.08 30.3749 7.98 30.4615 7.9C30.5482 7.81333 30.6482 7.74667 30.7615 7.7C30.8749 7.64667 30.9982 7.62 31.1315 7.62C31.2582 7.62 31.3782 7.64667 31.4915 7.7C31.6115 7.74667 31.7149 7.81333 31.8015 7.9C31.8882 7.98 31.9549 8.08 32.0015 8.2C32.0549 8.31333 32.0815 8.43667 32.0815 8.57ZM40.1046 13.18C39.9912 13.7667 39.7212 14.24 39.2946 14.6C38.8746 14.96 38.3112 15.14 37.6046 15.14C37.2379 15.14 36.8946 15.0833 36.5746 14.97C36.2612 14.8567 35.9879 14.6933 35.7546 14.48C35.5212 14.2667 35.3379 14.0033 35.2046 13.69C35.0712 13.3767 35.0046 13.02 35.0046 12.62V12.5C35.0046 12.1 35.0712 11.74 35.2046 11.42C35.3379 11.1 35.5212 10.8267 35.7546 10.6C35.9946 10.3733 36.2712 10.2 36.5846 10.08C36.9046 9.96 37.2446 9.9 37.6046 9.9C38.2979 9.9 38.8579 10.08 39.2846 10.44C39.7179 10.8 39.9912 11.2733 40.1046 11.86L38.8646 12.18C38.8246 11.8867 38.6979 11.6333 38.4846 11.42C38.2712 11.2067 37.9712 11.1 37.5846 11.1C37.4046 11.1 37.2346 11.1333 37.0746 11.2C36.9146 11.2667 36.7746 11.3633 36.6546 11.49C36.5346 11.61 36.4379 11.76 36.3646 11.94C36.2979 12.1133 36.2646 12.31 36.2646 12.53V12.59C36.2646 12.81 36.2979 13.0067 36.3646 13.18C36.4379 13.3467 36.5346 13.4867 36.6546 13.6C36.7746 13.7133 36.9146 13.8 37.0746 13.86C37.2346 13.9133 37.4046 13.94 37.5846 13.94C37.9712 13.94 38.2646 13.8433 38.4646 13.65C38.6712 13.4567 38.8046 13.1967 38.8646 12.87L40.1046 13.18Z" fill="white"/>
<defs>
<linearGradient id="paint0_linear_151_1825" x1="-5.8523e-07" y1="18" x2="49" y2="6" gradientUnits="userSpaceOnUse">
<stop stop-color="#8ED0DC"/>
<stop offset="0.517878" stop-color="#8193E0"/>
<stop offset="1" stop-color="#905DC6"/>
</linearGradient>
</defs>
</svg>
