<svg width="49" height="23" viewBox="0 0 49 23" fill="none" xmlns="http://www.w3.org/2000/svg">
<rect width="49" height="23" rx="4" fill="url(#paint0_linear_151_1882)"/>
<path d="M8.61238 8H10.9324L11.3324 13.26V14.28H11.5724V13.26L11.9724 8H14.2924V15H13.0924V10.32L13.2124 8.72H12.9724L12.4524 15H10.4724L9.93238 8.72H9.69238L9.81238 10.32V15H8.61238V8ZM16.8054 12.93C16.8121 13.0767 16.8454 13.2133 16.9054 13.34C16.9721 13.46 17.0588 13.5667 17.1654 13.66C17.2788 13.7467 17.4054 13.8167 17.5454 13.87C17.6921 13.9167 17.8454 13.94 18.0054 13.94C18.3188 13.94 18.5588 13.8867 18.7254 13.78C18.8921 13.6667 19.0121 13.5333 19.0854 13.38L20.1654 13.98C20.1054 14.1067 20.0221 14.24 19.9154 14.38C19.8088 14.5133 19.6688 14.6367 19.4954 14.75C19.3288 14.8633 19.1221 14.9567 18.8754 15.03C18.6354 15.1033 18.3521 15.14 18.0254 15.14C17.6521 15.14 17.3121 15.08 17.0054 14.96C16.6988 14.84 16.4321 14.6667 16.2054 14.44C15.9854 14.2133 15.8121 13.9367 15.6854 13.61C15.5654 13.2833 15.5054 12.9133 15.5054 12.5V12.44C15.5054 12.06 15.5688 11.7133 15.6954 11.4C15.8288 11.0867 16.0088 10.82 16.2354 10.6C16.4621 10.38 16.7254 10.21 17.0254 10.09C17.3321 9.96333 17.6588 9.9 18.0054 9.9C18.4321 9.9 18.7988 9.97667 19.1054 10.13C19.4121 10.2767 19.6654 10.4667 19.8654 10.7C20.0654 10.9267 20.2121 11.18 20.3054 11.46C20.3988 11.7333 20.4454 12 20.4454 12.26V12.93H16.8054ZM17.9954 11.04C17.6754 11.04 17.4154 11.1233 17.2154 11.29C17.0154 11.45 16.8854 11.6367 16.8254 11.85H19.1654C19.1254 11.6167 18.9988 11.4233 18.7854 11.27C18.5788 11.1167 18.3154 11.04 17.9954 11.04ZM22.0785 10.04H23.5485V8H24.8085V10.04H26.5985V11.24H24.8085V13.5C24.8085 13.7 24.8985 13.8 25.0785 13.8H26.4185V15H24.3185C24.0918 15 23.9051 14.9267 23.7585 14.78C23.6185 14.6333 23.5485 14.4467 23.5485 14.22V11.24H22.0785V10.04ZM31.9515 14.28C31.8182 14.5933 31.6315 14.8167 31.3915 14.95C31.1515 15.0767 30.8715 15.14 30.5515 15.14C30.2515 15.14 29.9682 15.0833 29.7015 14.97C29.4415 14.8567 29.2115 14.69 29.0115 14.47C28.8115 14.25 28.6515 13.9833 28.5315 13.67C28.4182 13.3567 28.3615 13 28.3615 12.6V12.44C28.3615 12.0467 28.4182 11.6933 28.5315 11.38C28.6449 11.0667 28.7982 10.8 28.9915 10.58C29.1849 10.36 29.4082 10.1933 29.6615 10.08C29.9215 9.96 30.1982 9.9 30.4915 9.9C30.8449 9.9 31.1282 9.96 31.3415 10.08C31.5615 10.2 31.7349 10.3867 31.8615 10.64H32.0415V10.04H33.3015V13.5C33.3015 13.7 33.3915 13.8 33.5715 13.8H33.7615V15H32.9015C32.6749 15 32.4882 14.9333 32.3415 14.8C32.2015 14.6667 32.1315 14.4933 32.1315 14.28H31.9515ZM30.8315 13.94C31.1982 13.94 31.4915 13.82 31.7115 13.58C31.9315 13.3333 32.0415 13 32.0415 12.58V12.46C32.0415 12.04 31.9315 11.71 31.7115 11.47C31.4915 11.2233 31.1982 11.1 30.8315 11.1C30.4649 11.1 30.1715 11.2233 29.9515 11.47C29.7315 11.71 29.6215 12.04 29.6215 12.46V12.58C29.6215 13 29.7315 13.3333 29.9515 13.58C30.1715 13.82 30.4649 13.94 30.8315 13.94ZM35.2346 13.8H36.9746V9.2H35.2946V8H38.2346V13.8H39.8546V15H35.2346V13.8Z" fill="white"/>
<defs>
<linearGradient id="paint0_linear_151_1882" x1="-5.8523e-07" y1="18" x2="49" y2="6" gradientUnits="userSpaceOnUse">
<stop stop-color="#636770"/>
<stop offset="0.63932" stop-color="#AFB4C7"/>
<stop offset="1" stop-color="#6F7B89"/>
</linearGradient>
</defs>
</svg>
