<svg width="55" height="23" viewBox="0 0 55 23" fill="none" xmlns="http://www.w3.org/2000/svg">
<rect width="55" height="23" rx="4" fill="url(#paint0_linear_151_1873)"/>
<path d="M8.61086 10.72C8.61086 9.81333 8.83753 9.11 9.29086 8.61C9.75086 8.11 10.3842 7.86 11.1909 7.86C11.9975 7.86 12.6275 8.11 13.0809 8.61C13.5409 9.11 13.7709 9.81333 13.7709 10.72V12.28C13.7709 13.2133 13.5409 13.9233 13.0809 14.41C12.6275 14.8967 11.9975 15.14 11.1909 15.14C10.3842 15.14 9.75086 14.8967 9.29086 14.41C8.83753 13.9233 8.61086 13.2133 8.61086 12.28V10.72ZM11.1909 13.94C11.4309 13.94 11.6309 13.9033 11.7909 13.83C11.9509 13.75 12.0809 13.64 12.1809 13.5C12.2809 13.36 12.3509 13.1933 12.3909 13C12.4309 12.8067 12.4509 12.5933 12.4509 12.36V10.64C12.4509 10.42 12.4275 10.2133 12.3809 10.02C12.3342 9.82667 12.2609 9.66 12.1609 9.52C12.0609 9.38 11.9309 9.27 11.7709 9.19C11.6109 9.10333 11.4175 9.06 11.1909 9.06C10.9642 9.06 10.7709 9.10333 10.6109 9.19C10.4509 9.27 10.3209 9.38 10.2209 9.52C10.1209 9.66 10.0475 9.82667 10.0009 10.02C9.95419 10.2133 9.93086 10.42 9.93086 10.64V12.36C9.93086 12.5933 9.95086 12.8067 9.99086 13C10.0309 13.1933 10.1009 13.36 10.2009 13.5C10.3009 13.64 10.4309 13.75 10.5909 13.83C10.7509 13.9033 10.9509 13.94 11.1909 13.94ZM20.2739 13.18C20.1606 13.7667 19.8906 14.24 19.4639 14.6C19.0439 14.96 18.4806 15.14 17.7739 15.14C17.4072 15.14 17.0639 15.0833 16.7439 14.97C16.4306 14.8567 16.1572 14.6933 15.9239 14.48C15.6906 14.2667 15.5072 14.0033 15.3739 13.69C15.2406 13.3767 15.1739 13.02 15.1739 12.62V12.5C15.1739 12.1 15.2406 11.74 15.3739 11.42C15.5072 11.1 15.6906 10.8267 15.9239 10.6C16.1639 10.3733 16.4406 10.2 16.7539 10.08C17.0739 9.96 17.4139 9.9 17.7739 9.9C18.4672 9.9 19.0272 10.08 19.4539 10.44C19.8872 10.8 20.1606 11.2733 20.2739 11.86L19.0339 12.18C18.9939 11.8867 18.8672 11.6333 18.6539 11.42C18.4406 11.2067 18.1406 11.1 17.7539 11.1C17.5739 11.1 17.4039 11.1333 17.2439 11.2C17.0839 11.2667 16.9439 11.3633 16.8239 11.49C16.7039 11.61 16.6072 11.76 16.5339 11.94C16.4672 12.1133 16.4339 12.31 16.4339 12.53V12.59C16.4339 12.81 16.4672 13.0067 16.5339 13.18C16.6072 13.3467 16.7039 13.4867 16.8239 13.6C16.9439 13.7133 17.0839 13.8 17.2439 13.86C17.4039 13.9133 17.5739 13.94 17.7539 13.94C18.1406 13.94 18.4339 13.8433 18.6339 13.65C18.8406 13.4567 18.9739 13.1967 19.0339 12.87L20.2739 13.18ZM26.797 13.18C26.6836 13.7667 26.4136 14.24 25.987 14.6C25.567 14.96 25.0036 15.14 24.297 15.14C23.9303 15.14 23.587 15.0833 23.267 14.97C22.9536 14.8567 22.6803 14.6933 22.447 14.48C22.2136 14.2667 22.0303 14.0033 21.897 13.69C21.7636 13.3767 21.697 13.02 21.697 12.62V12.5C21.697 12.1 21.7636 11.74 21.897 11.42C22.0303 11.1 22.2136 10.8267 22.447 10.6C22.687 10.3733 22.9636 10.2 23.277 10.08C23.597 9.96 23.937 9.9 24.297 9.9C24.9903 9.9 25.5503 10.08 25.977 10.44C26.4103 10.8 26.6836 11.2733 26.797 11.86L25.557 12.18C25.517 11.8867 25.3903 11.6333 25.177 11.42C24.9636 11.2067 24.6636 11.1 24.277 11.1C24.097 11.1 23.927 11.1333 23.767 11.2C23.607 11.2667 23.467 11.3633 23.347 11.49C23.227 11.61 23.1303 11.76 23.057 11.94C22.9903 12.1133 22.957 12.31 22.957 12.53V12.59C22.957 12.81 22.9903 13.0067 23.057 13.18C23.1303 13.3467 23.227 13.4867 23.347 13.6C23.467 13.7133 23.607 13.8 23.767 13.86C23.927 13.9133 24.097 13.94 24.277 13.94C24.6636 13.94 24.957 13.8433 25.157 13.65C25.3636 13.4567 25.497 13.1967 25.557 12.87L26.797 13.18ZM31.84 10.04H33.1V15H31.84V14.28H31.66C31.44 14.8533 30.9667 15.14 30.24 15.14C29.9933 15.14 29.7633 15.1 29.55 15.02C29.3367 14.94 29.15 14.8167 28.99 14.65C28.83 14.4833 28.7033 14.2767 28.61 14.03C28.5233 13.7767 28.48 13.48 28.48 13.14V10.04H29.74V12.88C29.74 13.2333 29.8233 13.51 29.99 13.71C30.1567 13.9033 30.4067 14 30.74 14C31.12 14 31.3967 13.88 31.57 13.64C31.75 13.3933 31.84 13.06 31.84 12.64V10.04ZM34.973 13.8H36.713V9.2H35.033V8H37.973V13.8H39.593V15H34.973V13.8ZM41.3861 10.04H42.8561V8H44.1161V10.04H45.9061V11.24H44.1161V13.5C44.1161 13.7 44.2061 13.8 44.3861 13.8H45.7261V15H43.6261C43.3994 15 43.2128 14.9267 43.0661 14.78C42.9261 14.6333 42.8561 14.4467 42.8561 14.22V11.24H41.3861V10.04Z" fill="white"/>
<defs>
<linearGradient id="paint0_linear_151_1873" x1="-6.56891e-07" y1="18" x2="54.2029" y2="3.1004" gradientUnits="userSpaceOnUse">
<stop stop-color="#757070"/>
<stop offset="1" stop-color="#2F185C"/>
</linearGradient>
</defs>
</svg>
