<svg width="68" height="23" viewBox="0 0 68 23" fill="none" xmlns="http://www.w3.org/2000/svg">
<rect width="68" height="23" rx="4" fill="#905DC6"/>
<path d="M10.1478 12.36V15H8.82781V8H11.5678C11.9278 8 12.2411 8.06 12.5078 8.18C12.7745 8.29333 12.9945 8.44667 13.1678 8.64C13.3478 8.82667 13.4811 9.04333 13.5678 9.29C13.6611 9.53 13.7078 9.77667 13.7078 10.03V10.27C13.7078 10.53 13.6611 10.7867 13.5678 11.04C13.4811 11.2867 13.3478 11.51 13.1678 11.71C12.9945 11.9033 12.7745 12.06 12.5078 12.18C12.2411 12.3 11.9278 12.36 11.5678 12.36H10.1478ZM10.1478 11.1H11.4378C11.7311 11.1 11.9611 11.02 12.1278 10.86C12.3011 10.7 12.3878 10.4933 12.3878 10.24V10.12C12.3878 9.86667 12.3011 9.66 12.1278 9.5C11.9611 9.34 11.7311 9.26 11.4378 9.26H10.1478V11.1ZM16.6909 15H15.4309V8H16.6909V10.84H16.8709C16.9975 10.54 17.1842 10.31 17.4309 10.15C17.6775 9.98333 17.9809 9.9 18.3409 9.9C18.5875 9.9 18.8142 9.94 19.0209 10.02C19.2275 10.1 19.4075 10.22 19.5609 10.38C19.7142 10.54 19.8342 10.7467 19.9209 11C20.0075 11.2467 20.0509 11.54 20.0509 11.88V15H18.7909V12.18C18.7909 11.8267 18.7042 11.55 18.5309 11.35C18.3642 11.1433 18.1209 11.04 17.8009 11.04C17.4275 11.04 17.1475 11.1667 16.9609 11.42C16.7809 11.6667 16.6909 12 16.6909 12.42V15ZM25.2939 10.04H26.5539V16.22C26.5539 16.4467 26.4806 16.6333 26.3339 16.78C26.1939 16.9267 26.0106 17 25.7839 17H22.8339V15.8H25.0239C25.2039 15.8 25.2939 15.7 25.2939 15.5V14.28H25.1139C24.8939 14.8533 24.4206 15.14 23.6939 15.14C23.4472 15.14 23.2172 15.1 23.0039 15.02C22.7906 14.94 22.6039 14.8167 22.4439 14.65C22.2839 14.4833 22.1572 14.2767 22.0639 14.03C21.9772 13.7767 21.9339 13.48 21.9339 13.14V10.04H23.1939V12.88C23.1939 13.2333 23.2772 13.51 23.4439 13.71C23.6106 13.9033 23.8606 14 24.1939 14C24.5739 14 24.8506 13.88 25.0239 13.64C25.2039 13.3933 25.2939 13.06 25.2939 12.64V10.04ZM30.037 11.44C30.037 11.6 30.1203 11.7167 30.287 11.79C30.4536 11.8567 30.757 11.9133 31.197 11.96C31.7036 12.0133 32.117 12.1667 32.437 12.42C32.757 12.6667 32.917 13.0133 32.917 13.46V13.52C32.917 14.0133 32.737 14.4067 32.377 14.7C32.017 14.9933 31.5103 15.14 30.857 15.14C30.4703 15.14 30.1403 15.09 29.867 14.99C29.5936 14.89 29.367 14.7667 29.187 14.62C29.007 14.4667 28.867 14.3 28.767 14.12C28.6736 13.9333 28.6103 13.7533 28.577 13.58L29.737 13.2C29.7903 13.4133 29.9003 13.6 30.067 13.76C30.2403 13.92 30.5036 14 30.857 14C31.1703 14 31.3836 13.9533 31.497 13.86C31.617 13.76 31.677 13.6533 31.677 13.54C31.677 13.4733 31.6603 13.4133 31.627 13.36C31.6003 13.3 31.547 13.2467 31.467 13.2C31.387 13.1467 31.277 13.1033 31.137 13.07C31.0036 13.0367 30.8336 13.01 30.627 12.99C30.067 12.9433 29.6203 12.8 29.287 12.56C28.9603 12.3133 28.797 11.9533 28.797 11.48V11.42C28.797 11.1733 28.8503 10.9567 28.957 10.77C29.0636 10.5833 29.2036 10.4267 29.377 10.3C29.5503 10.1667 29.7503 10.0667 29.977 10C30.2036 9.93333 30.437 9.9 30.677 9.9C30.9903 9.9 31.2603 9.94 31.487 10.02C31.7203 10.0933 31.917 10.1933 32.077 10.32C32.237 10.44 32.367 10.5767 32.467 10.73C32.567 10.8767 32.6436 11.02 32.697 11.16L31.557 11.62C31.497 11.44 31.3936 11.3 31.247 11.2C31.1003 11.0933 30.9103 11.04 30.677 11.04C30.4636 11.04 30.3036 11.08 30.197 11.16C30.0903 11.2333 30.037 11.3267 30.037 11.44ZM35.07 13.8H36.75V11.24H35.19V10.04H38.01V13.8H39.45V15H35.07V13.8ZM38.32 8.57C38.32 8.70333 38.2933 8.83 38.24 8.95C38.1933 9.06333 38.1267 9.16333 38.04 9.25C37.9533 9.33 37.85 9.39667 37.73 9.45C37.6167 9.49667 37.4967 9.52 37.37 9.52C37.2367 9.52 37.1133 9.49667 37 9.45C36.8867 9.39667 36.7867 9.33 36.7 9.25C36.6133 9.16333 36.5433 9.06333 36.49 8.95C36.4433 8.83 36.42 8.70333 36.42 8.57C36.42 8.43667 36.4433 8.31333 36.49 8.2C36.5433 8.08 36.6133 7.98 36.7 7.9C36.7867 7.81333 36.8867 7.74667 37 7.7C37.1133 7.64667 37.2367 7.62 37.37 7.62C37.4967 7.62 37.6167 7.64667 37.73 7.7C37.85 7.74667 37.9533 7.81333 38.04 7.9C38.1267 7.98 38.1933 8.08 38.24 8.2C38.2933 8.31333 38.32 8.43667 38.32 8.57ZM46.343 13.18C46.2297 13.7667 45.9597 14.24 45.533 14.6C45.113 14.96 44.5497 15.14 43.843 15.14C43.4764 15.14 43.133 15.0833 42.813 14.97C42.4997 14.8567 42.2264 14.6933 41.993 14.48C41.7597 14.2667 41.5764 14.0033 41.443 13.69C41.3097 13.3767 41.243 13.02 41.243 12.62V12.5C41.243 12.1 41.3097 11.74 41.443 11.42C41.5764 11.1 41.7597 10.8267 41.993 10.6C42.233 10.3733 42.5097 10.2 42.823 10.08C43.143 9.96 43.483 9.9 43.843 9.9C44.5364 9.9 45.0964 10.08 45.523 10.44C45.9564 10.8 46.2297 11.2733 46.343 11.86L45.103 12.18C45.063 11.8867 44.9364 11.6333 44.723 11.42C44.5097 11.2067 44.2097 11.1 43.823 11.1C43.643 11.1 43.473 11.1333 43.313 11.2C43.153 11.2667 43.013 11.3633 42.893 11.49C42.773 11.61 42.6764 11.76 42.603 11.94C42.5364 12.1133 42.503 12.31 42.503 12.53V12.59C42.503 12.81 42.5364 13.0067 42.603 13.18C42.6764 13.3467 42.773 13.4867 42.893 13.6C43.013 13.7133 43.153 13.8 43.313 13.86C43.473 13.9133 43.643 13.94 43.823 13.94C44.2097 13.94 44.503 13.8433 44.703 13.65C44.9097 13.4567 45.043 13.1967 45.103 12.87L46.343 13.18ZM51.2361 14.28C51.1028 14.5933 50.9161 14.8167 50.6761 14.95C50.4361 15.0767 50.1561 15.14 49.8361 15.14C49.5361 15.14 49.2528 15.0833 48.9861 14.97C48.7261 14.8567 48.4961 14.69 48.2961 14.47C48.0961 14.25 47.9361 13.9833 47.8161 13.67C47.7028 13.3567 47.6461 13 47.6461 12.6V12.44C47.6461 12.0467 47.7028 11.6933 47.8161 11.38C47.9294 11.0667 48.0828 10.8 48.2761 10.58C48.4694 10.36 48.6928 10.1933 48.9461 10.08C49.2061 9.96 49.4828 9.9 49.7761 9.9C50.1294 9.9 50.4128 9.96 50.6261 10.08C50.8461 10.2 51.0194 10.3867 51.1461 10.64H51.3261V10.04H52.5861V13.5C52.5861 13.7 52.6761 13.8 52.8561 13.8H53.0461V15H52.1861C51.9594 15 51.7728 14.9333 51.6261 14.8C51.4861 14.6667 51.4161 14.4933 51.4161 14.28H51.2361ZM50.1161 13.94C50.4828 13.94 50.7761 13.82 50.9961 13.58C51.2161 13.3333 51.3261 13 51.3261 12.58V12.46C51.3261 12.04 51.2161 11.71 50.9961 11.47C50.7761 11.2233 50.4828 11.1 50.1161 11.1C49.7494 11.1 49.4561 11.2233 49.2361 11.47C49.0161 11.71 48.9061 12.04 48.9061 12.46V12.58C48.9061 13 49.0161 13.3333 49.2361 13.58C49.4561 13.82 49.7494 13.94 50.1161 13.94ZM54.5191 13.8H56.2591V9.2H54.5791V8H57.5191V13.8H59.1391V15H54.5191V13.8Z" fill="white"/>
</svg>
