 <svg width="49" height="23" viewBox="0 0 49 23" fill="none" xmlns="http://www.w3.org/2000/svg">
<rect width="49" height="23" rx="4" fill="#4796F2"/>
<path d="M14.1924 15H11.8924L11.5724 9.68V8.72H11.3324V9.68L11.0124 15H8.71238L8.47238 8H9.67238L9.83238 13.32V14.22H10.0724V13.32L10.3924 8H12.5124L12.8324 13.32V14.22H13.0724V13.32L13.2324 8H14.4324L14.1924 15ZM18.9054 14.28C18.7721 14.5933 18.5854 14.8167 18.3454 14.95C18.1054 15.0767 17.8254 15.14 17.5054 15.14C17.2054 15.14 16.9221 15.0833 16.6554 14.97C16.3954 14.8567 16.1654 14.69 15.9654 14.47C15.7654 14.25 15.6054 13.9833 15.4854 13.67C15.3721 13.3567 15.3154 13 15.3154 12.6V12.44C15.3154 12.0467 15.3721 11.6933 15.4854 11.38C15.5988 11.0667 15.7521 10.8 15.9454 10.58C16.1388 10.36 16.3621 10.1933 16.6154 10.08C16.8754 9.96 17.1521 9.9 17.4454 9.9C17.7988 9.9 18.0821 9.96 18.2954 10.08C18.5154 10.2 18.6888 10.3867 18.8154 10.64H18.9954V10.04H20.2554V13.5C20.2554 13.7 20.3454 13.8 20.5254 13.8H20.7154V15H19.8554C19.6288 15 19.4421 14.9333 19.2954 14.8C19.1554 14.6667 19.0854 14.4933 19.0854 14.28H18.9054ZM17.7854 13.94C18.1521 13.94 18.4454 13.82 18.6654 13.58C18.8854 13.3333 18.9954 13 18.9954 12.58V12.46C18.9954 12.04 18.8854 11.71 18.6654 11.47C18.4454 11.2233 18.1521 11.1 17.7854 11.1C17.4188 11.1 17.1254 11.2233 16.9054 11.47C16.6854 11.71 16.5754 12.04 16.5754 12.46V12.58C16.5754 13 16.6854 13.3333 16.9054 13.58C17.1254 13.82 17.4188 13.94 17.7854 13.94ZM22.0785 10.04H23.5485V8H24.8085V10.04H26.5985V11.24H24.8085V13.5C24.8085 13.7 24.8985 13.8 25.0785 13.8H26.4185V15H24.3185C24.0918 15 23.9051 14.9267 23.7585 14.78C23.6185 14.6333 23.5485 14.4467 23.5485 14.22V11.24H22.0785V10.04ZM29.8515 12.93C29.8582 13.0767 29.8915 13.2133 29.9515 13.34C30.0182 13.46 30.1049 13.5667 30.2115 13.66C30.3249 13.7467 30.4515 13.8167 30.5915 13.87C30.7382 13.9167 30.8915 13.94 31.0515 13.94C31.3649 13.94 31.6049 13.8867 31.7715 13.78C31.9382 13.6667 32.0582 13.5333 32.1315 13.38L33.2115 13.98C33.1515 14.1067 33.0682 14.24 32.9615 14.38C32.8549 14.5133 32.7149 14.6367 32.5415 14.75C32.3749 14.8633 32.1682 14.9567 31.9215 15.03C31.6815 15.1033 31.3982 15.14 31.0715 15.14C30.6982 15.14 30.3582 15.08 30.0515 14.96C29.7449 14.84 29.4782 14.6667 29.2515 14.44C29.0315 14.2133 28.8582 13.9367 28.7315 13.61C28.6115 13.2833 28.5515 12.9133 28.5515 12.5V12.44C28.5515 12.06 28.6149 11.7133 28.7415 11.4C28.8749 11.0867 29.0549 10.82 29.2815 10.6C29.5082 10.38 29.7715 10.21 30.0715 10.09C30.3782 9.96333 30.7049 9.9 31.0515 9.9C31.4782 9.9 31.8449 9.97667 32.1515 10.13C32.4582 10.2767 32.7115 10.4667 32.9115 10.7C33.1115 10.9267 33.2582 11.18 33.3515 11.46C33.4449 11.7333 33.4915 12 33.4915 12.26V12.93H29.8515ZM31.0415 11.04C30.7215 11.04 30.4615 11.1233 30.2615 11.29C30.0615 11.45 29.9315 11.6367 29.8715 11.85H32.2115C32.1715 11.6167 32.0449 11.4233 31.8315 11.27C31.6249 11.1167 31.3615 11.04 31.0415 11.04ZM35.0246 10.04H37.1246V10.76H37.3046C37.3979 10.4867 37.5546 10.2767 37.7746 10.13C38.0012 9.97667 38.2712 9.9 38.5846 9.9C39.0779 9.9 39.4746 10.0567 39.7746 10.37C40.0746 10.6767 40.2246 11.1467 40.2246 11.78V12L38.9246 12.12V11.98C38.9246 11.7067 38.8546 11.49 38.7146 11.33C38.5746 11.1633 38.3646 11.08 38.0846 11.08C37.8046 11.08 37.5846 11.1767 37.4246 11.37C37.2646 11.5633 37.1846 11.84 37.1846 12.2V13.8H38.3246V15H34.9046V13.8H35.9246V11.24H35.0246V10.04Z" fill="white"/>
</svg>


