<svg width="42" height="23" viewBox="0 0 42 23" fill="none" xmlns="http://www.w3.org/2000/svg">
<rect width="42" height="23" rx="4" fill="url(#paint0_linear_151_1874)"/>
<path d="M13.9539 15H11.6539L11.3339 9.68V8.72H11.0939V9.68L10.7739 15H8.47391L8.23391 8H9.43391L9.59391 13.32V14.22H9.83391V13.32L10.1539 8H12.2739L12.5939 13.32V14.22H12.8339V13.32L12.9939 8H14.1939L13.9539 15ZM15.547 13.8H17.227V11.24H15.667V10.04H18.487V13.8H19.927V15H15.547V13.8ZM18.797 8.57C18.797 8.70333 18.7703 8.83 18.717 8.95C18.6703 9.06333 18.6036 9.16333 18.517 9.25C18.4303 9.33 18.327 9.39667 18.207 9.45C18.0936 9.49667 17.9736 9.52 17.847 9.52C17.7136 9.52 17.5903 9.49667 17.477 9.45C17.3636 9.39667 17.2636 9.33 17.177 9.25C17.0903 9.16333 17.0203 9.06333 16.967 8.95C16.9203 8.83 16.897 8.70333 16.897 8.57C16.897 8.43667 16.9203 8.31333 16.967 8.2C17.0203 8.08 17.0903 7.98 17.177 7.9C17.2636 7.81333 17.3636 7.74667 17.477 7.7C17.5903 7.64667 17.7136 7.62 17.847 7.62C17.9736 7.62 18.0936 7.64667 18.207 7.7C18.327 7.74667 18.4303 7.81333 18.517 7.9C18.6036 7.98 18.6703 8.08 18.717 8.2C18.7703 8.31333 18.797 8.43667 18.797 8.57ZM23.24 15H21.98V10.04H23.24V10.78H23.42C23.5333 10.5 23.7167 10.2833 23.97 10.13C24.2233 9.97667 24.52 9.9 24.86 9.9C25.1 9.9 25.3233 9.94 25.53 10.02C25.7433 10.0933 25.93 10.21 26.09 10.37C26.25 10.53 26.3733 10.7333 26.46 10.98C26.5533 11.2267 26.6 11.52 26.6 11.86V15H25.34V12.18C25.34 11.8267 25.2533 11.55 25.08 11.35C24.9133 11.1433 24.67 11.04 24.35 11.04C23.9767 11.04 23.6967 11.1667 23.51 11.42C23.33 11.6667 23.24 12 23.24 12.42V15ZM32.063 14.28H31.883C31.8297 14.3933 31.763 14.5033 31.683 14.61C31.6097 14.71 31.5097 14.8 31.383 14.88C31.263 14.96 31.1164 15.0233 30.943 15.07C30.7764 15.1167 30.573 15.14 30.333 15.14C30.0264 15.14 29.7397 15.0867 29.473 14.98C29.213 14.8667 28.983 14.7033 28.783 14.49C28.5897 14.27 28.4364 14.0033 28.323 13.69C28.2164 13.3767 28.163 13.0167 28.163 12.61V12.43C28.163 12.03 28.2197 11.6733 28.333 11.36C28.453 11.0467 28.613 10.7833 28.813 10.57C29.0197 10.35 29.2564 10.1833 29.523 10.07C29.7964 9.95667 30.083 9.9 30.383 9.9C30.783 9.9 31.0997 9.97667 31.333 10.13C31.5664 10.2767 31.7497 10.4867 31.883 10.76H32.063V8H33.323V15H32.063V14.28ZM30.743 13.94C31.1364 13.94 31.453 13.8167 31.693 13.57C31.9397 13.3167 32.063 12.9867 32.063 12.58V12.46C32.063 12.0533 31.9397 11.7267 31.693 11.48C31.453 11.2267 31.1364 11.1 30.743 11.1C30.3497 11.1 30.0297 11.2233 29.783 11.47C29.543 11.71 29.423 12.04 29.423 12.46V12.58C29.423 13 29.543 13.3333 29.783 13.58C30.0297 13.82 30.3497 13.94 30.743 13.94Z" fill="white"/>
<defs>
<linearGradient id="paint0_linear_151_1874" x1="-5.01625e-07" y1="18" x2="42.6401" y2="9.04931" gradientUnits="userSpaceOnUse">
<stop stop-color="#5B7AB6"/>
<stop offset="1" stop-color="#A3B3DA"/>
</linearGradient>
</defs>
</svg>
